<?xml version="1.0" standalone="no"?>
<!DOCTYPE svg PUBLIC "-//W3C//DTD SVG 20010904//EN"
 "http://www.w3.org/TR/2001/REC-SVG-20010904/DTD/svg10.dtd">
<svg version="1.0" xmlns="http://www.w3.org/2000/svg"
 width="700.000000pt" height="700.000000pt" viewBox="0 0 700.000000 700.000000"
 preserveAspectRatio="xMidYMid meet">
<metadata>
Created by potrace 1.14, written by Peter Selinger 2001-2017
</metadata>
<g transform="translate(0.000000,700.000000) scale(0.100000,-0.100000)"
fill="#000000" stroke="none">
<path d="M3278 6995 c-1 -1 -42 -5 -89 -9 -47 -4 -95 -8 -105 -10 -10 -2 -46
-7 -79 -11 -32 -4 -68 -9 -80 -11 -11 -2 -45 -8 -75 -14 -456 -83 -929 -280
-1320 -548 -639 -437 -1108 -1059 -1354 -1794 -31 -94 -79 -267 -91 -329 -3
-13 -12 -58 -20 -99 -8 -41 -17 -89 -19 -105 -3 -17 -7 -46 -11 -66 -7 -42
-11 -82 -22 -199 -15 -162 -8 -605 11 -707 2 -10 7 -43 10 -74 4 -31 9 -67 11
-80 3 -13 7 -37 9 -54 16 -108 112 -473 146 -550 5 -11 30 -74 56 -140 52
-135 137 -309 215 -441 48 -83 177 -283 189 -294 3 -3 31 -40 63 -82 31 -42
63 -83 70 -90 6 -7 35 -40 62 -73 133 -159 393 -399 585 -540 347 -255 762
-452 1177 -560 144 -38 140 -37 298 -64 212 -38 321 -46 600 -46 424 0 699 45
1130 185 184 60 274 85 335 95 137 21 183 24 330 20 91 -2 181 -6 200 -10 89
-15 226 -49 380 -95 513 -152 677 -194 755 -194 65 0 90 4 137 26 79 37 142
98 181 177 28 58 32 75 31 146 -1 79 -56 287 -284 1070 -48 165 -60 247 -55
380 5 144 27 239 90 380 15 35 73 200 104 295 20 62 67 247 77 300 2 14 7 36
10 50 3 14 8 39 10 55 2 17 6 39 8 50 2 11 7 45 11 75 4 30 9 66 11 80 25 149
24 709 -1 835 -2 11 -7 40 -10 65 -3 25 -7 56 -10 70 -3 14 -8 42 -11 63 -3
21 -19 93 -34 160 -174 761 -626 1474 -1244 1962 -78 62 -272 198 -303 213
-18 9 -33 19 -33 24 0 4 -4 8 -9 8 -5 0 -35 16 -67 35 -328 198 -816 373
-1199 431 -27 4 -52 8 -55 9 -3 1 -41 5 -85 10 -44 4 -89 10 -100 12 -25 4
-532 13 -537 8z m365 -1940 c235 -16 523 -120 739 -266 128 -86 324 -284 410
-414 103 -156 172 -306 217 -475 41 -151 50 -242 47 -435 -3 -129 -9 -195 -26
-274 -27 -129 -79 -280 -132 -386 -40 -81 -148 -249 -190 -296 -112 -127 -220
-226 -323 -296 -348 -236 -753 -321 -1185 -248 -65 11 -215 57 -295 90 -355
147 -647 421 -810 762 -242 503 -205 1076 99 1542 257 394 710 665 1166 697
52 4 96 8 98 9 2 2 73 -2 185 -10z"/>
</g>
</svg>
